<svg width="454" height="476" viewBox="0 0 454 476" fill="none" xmlns="http://www.w3.org/2000/svg">
<path d="M139.801 359.304C189.835 359.304 230.523 379.619 230.523 404.658C230.494 412.22 226.724 419.379 220.08 425.681L252.991 444.531L204.09 475.901L166.329 448.216L165.719 448.118C157.51 449.349 148.811 450.012 139.801 450.012C131.441 450.012 123.347 449.447 115.661 448.389L82.3099 468.531L38.0349 445.476L63.8454 429.469C57.0751 424.298 52.3601 418.395 50.2793 412.05L4.80505 401.067L51.9122 375.272L66.0776 378.198C82.5557 366.74 109.46 359.304 139.801 359.304Z" fill="#E6E6E6"/>
<path fill-rule="evenodd" clip-rule="evenodd" d="M204.837 72.5906L452.882 139.568V304.484L451.206 306.77L209.125 244.304L204.739 233.957L204.837 72.5906Z" fill="#E6E6E6"/>
<path fill-rule="evenodd" clip-rule="evenodd" d="M198.992 235.337C196.066 234.675 194.083 231.935 194.083 228.817C194.083 203.211 194.083 177.605 194.083 151.904C194.083 126.204 194.083 100.692 194.083 74.8974C194.083 70.7399 193.37 70.6031 197.618 69.3747C199.034 68.9968 200.545 68.8078 201.866 69.2803L249.446 81.5636C312.884 97.7209 378.589 114.634 443.066 131.264C445.993 131.925 447.975 134.665 447.975 137.783V288.357C447.975 292.514 447.272 295.714 442.929 296.942C441.419 297.415 441.608 297.32 440.286 296.942C345.883 272.659 269.228 253.1 198.992 235.337Z" fill="#424657"/>
<path fill-rule="evenodd" clip-rule="evenodd" d="M199.464 229.29C198.614 229.101 197.954 228.345 197.954 227.589C197.954 176.377 198.142 124.881 198.142 73.5746C198.142 72.8187 198.803 72.4408 199.653 72.5353C280.084 92.9445 360.516 113.448 440.758 134.424C441.608 134.613 442.269 135.369 442.269 136.125V289.856C442.08 290.706 441.419 291.179 440.758 290.895C360.327 270.297 280.084 249.699 199.464 229.29Z" fill="white"/>
<path fill-rule="evenodd" clip-rule="evenodd" d="M446.276 133.248C445.426 132.209 444.293 131.642 442.972 131.264C378.494 114.54 312.884 97.721 249.446 81.5637L201.866 69.3748C200.545 68.9969 199.034 69.0914 197.618 69.5638C194.503 70.5087 195.877 68.7558 194.744 71.8738C195.688 71.7793 196.726 71.7793 197.67 71.9683L245.25 84.0627C308.688 100.22 374.393 117.133 438.87 133.763C440.192 134.141 441.325 134.802 442.174 135.747L446.276 133.248Z" fill="#5E616E"/>
<path d="M366.067 231C328.401 221.929 309.709 217.299 272.231 208.323C271.381 208.134 270.72 207.472 270.72 207.189C270.909 180.26 271.004 153.237 271.192 126.308C271.192 125.835 271.853 125.646 272.703 125.835C310.37 134.906 329.25 139.536 366.917 148.796C367.767 148.985 368.427 149.646 368.427 149.93C368.144 176.858 367.767 203.882 367.483 230.811C367.578 231.094 366.917 231.283 366.067 231Z" fill="#111723"/>
<path d="M292.458 163.096C286.889 161.584 281.319 160.261 275.655 158.844C274.805 158.655 274.05 157.804 274.05 156.954C274.05 150.623 274.05 147.316 274.05 140.986C274.05 140.23 274.711 139.663 275.655 139.852L292.458 144.198C293.308 144.387 294.063 145.238 294.063 146.088V161.962C294.063 162.812 293.402 163.285 292.458 163.096Z" fill="#EC5B33"/>
<path fill-rule="evenodd" clip-rule="evenodd" d="M315.965 169.048C309.262 167.253 305.958 166.497 299.161 164.796C298.311 164.607 297.556 163.757 297.556 162.907L297.651 147.033C297.651 146.182 298.311 145.71 299.35 145.899C306.052 147.694 309.357 148.45 316.154 150.151C317.003 150.34 317.758 151.19 317.758 152.041L317.57 167.915C317.381 168.954 316.814 169.237 315.965 169.048Z" fill="#F5F5F5"/>
<path d="M339.282 175.19C332.58 173.395 329.087 172.545 322.384 170.938C321.535 170.749 320.779 169.899 320.779 168.954C320.779 162.623 320.779 159.505 320.968 153.08C320.968 152.324 321.629 151.757 322.573 151.946L339.471 156.198C340.321 156.387 341.076 157.238 341.076 158.088L340.887 173.962C340.982 174.812 340.321 175.285 339.282 175.19Z" fill="#FFD200"/>
<path d="M362.789 181.048L345.89 176.796C345.041 176.607 344.286 175.757 344.286 174.812C344.286 168.482 344.286 165.363 344.474 158.938C344.474 158.182 345.135 157.615 346.079 157.804L362.977 162.056C363.827 162.245 364.582 163.096 364.582 164.041L364.488 179.914C364.488 180.765 363.827 181.237 362.789 181.048Z" fill="#71BD67"/>
<path d="M292.081 185.572C286.511 184.06 280.941 182.738 275.277 181.32C274.427 181.131 273.672 180.281 273.672 179.431C273.672 173.1 273.672 169.793 273.672 163.462C273.672 162.706 274.333 162.139 275.277 162.328L292.081 166.675C292.93 166.864 293.686 167.714 293.686 168.565V184.438C293.78 185.289 293.119 185.761 292.081 185.572Z" fill="white"/>
<path d="M315.493 191.525C308.79 189.73 305.486 188.974 298.689 187.273C297.839 187.084 297.084 186.234 297.084 185.383L297.273 169.509C297.273 168.753 297.934 168.187 298.878 168.375C305.58 170.171 308.884 170.927 315.681 172.627C316.531 172.816 317.286 173.667 317.286 174.517L317.098 190.391C317.098 191.241 316.437 191.714 315.493 191.525Z" fill="#71BD67"/>
<path fill-rule="evenodd" clip-rule="evenodd" d="M338.999 197.477C332.296 195.682 328.803 194.832 322.101 193.226C321.251 193.037 320.496 192.186 320.496 191.241C320.496 184.911 320.496 181.793 320.685 175.367C320.685 174.612 321.346 174.045 322.29 174.234L339.188 178.486C340.037 178.675 340.793 179.525 340.793 180.375L340.604 196.249C340.604 197.1 339.943 197.666 338.999 197.477Z" fill="#5EB3E4"/>
<path fill-rule="evenodd" clip-rule="evenodd" d="M362.505 203.525L345.607 199.273C344.758 199.084 344.002 198.234 344.002 197.289C344.002 190.958 344.002 187.84 344.191 181.415C344.191 180.659 344.852 180.092 345.796 180.281L362.694 184.533C363.544 184.722 364.299 185.572 364.299 186.517L364.11 202.391C364.11 203.147 363.355 203.714 362.505 203.525Z" fill="#FFA300"/>
<path d="M292.081 208.109C286.511 206.597 280.941 205.274 275.277 203.857C274.427 203.668 273.672 202.817 273.672 201.967C273.672 195.636 273.672 192.329 273.672 185.999C273.672 185.243 274.333 184.676 275.277 184.865L292.081 189.117C292.93 189.306 293.686 190.156 293.686 191.006V206.88C293.78 207.825 293.119 208.298 292.081 208.109Z" fill="#71C4C2"/>
<path d="M315.493 214.061C308.79 212.266 305.486 211.51 298.689 209.809C297.839 209.62 297.084 208.77 297.084 207.92L297.179 192.046C297.179 191.29 297.839 190.723 298.783 190.912C305.486 192.707 308.79 193.463 315.587 195.164C316.437 195.353 317.192 196.203 317.192 197.054L317.003 212.927C317.098 213.778 316.437 214.25 315.493 214.061Z" fill="#63B8E8"/>
<path d="M338.999 220.108C332.296 218.313 328.803 217.463 322.101 215.856C321.251 215.667 320.496 214.817 320.496 213.872C320.496 207.542 320.496 204.423 320.685 197.998C320.685 197.242 321.346 196.676 322.29 196.865L339.188 201.116C340.037 201.305 340.793 202.156 340.793 203.006L340.604 218.88C340.604 219.825 339.943 220.297 338.999 220.108Z" fill="#EC5B33"/>
<path d="M362.505 226.061L345.607 221.809C344.758 221.62 344.002 220.77 344.002 219.825C344.002 213.494 344.002 210.376 344.191 203.951C344.191 203.195 344.852 202.628 345.796 202.817L362.694 207.069C363.544 207.258 364.299 208.109 364.299 209.054L364.11 224.927C364.11 225.683 363.355 226.25 362.505 226.061Z" fill="#D2C1AD"/>
<path d="M290.262 140.008C284.031 138.402 280.916 137.646 274.591 136.04V131.599L290.262 135.662V140.008Z" fill="#FCFCFB"/>
<path d="M436.699 284.186C418.29 279.462 399.693 274.738 381.284 270.108C380.34 269.73 379.491 268.785 379.491 267.84C379.491 264.155 379.491 262.265 379.491 258.486C379.491 257.541 380.34 256.974 381.284 257.163C403.28 262.738 414.514 265.573 436.699 271.336C437.643 271.714 438.492 272.659 438.492 273.604V282.958C438.681 283.714 437.643 284.375 436.699 284.186Z" fill="#111723"/>
<path d="M409.228 273.793C402.997 272.187 399.882 271.431 393.557 269.824V265.478L409.228 269.447V273.793Z" fill="#71BD67"/>
<path d="M390.253 270.486L382.984 268.691C382.512 268.502 382.134 268.124 382.134 267.651C382.134 264.817 382.134 263.494 382.134 260.659C382.134 260.187 382.417 259.903 382.984 260.092L390.253 261.982C390.725 262.171 391.102 262.549 391.102 263.021V270.013C391.102 270.202 390.819 270.486 390.253 270.486Z" fill="#C8C8C8"/>
<path d="M425.194 246.798C404.614 241.601 394.23 238.955 373.839 233.758C373.367 233.569 372.989 233.192 372.989 232.719C373.178 205.696 373.178 178.861 373.367 151.744C373.367 151.271 373.65 150.988 374.216 151.177C394.796 156.373 405.181 159.114 425.855 164.31C426.327 164.499 426.61 164.877 426.61 165.35C426.421 192.279 426.327 219.302 426.138 246.231C425.949 246.703 425.666 246.987 425.194 246.798Z" fill="#111723"/>
<path opacity="0.1" d="M419.933 216.216C405.772 212.531 391.612 209.035 377.357 205.445C376.508 205.256 375.847 204.5 375.847 203.744C376.035 186.169 376.035 183.618 376.13 165.949C376.13 165.193 376.791 164.815 377.64 164.91C391.801 168.595 405.961 172.091 420.027 175.776C420.877 175.965 421.538 176.72 421.538 177.476L421.255 215.271C421.16 216.122 420.594 216.5 419.933 216.216Z" fill="white"/>
<path d="M421.538 178.61V177.476C421.538 176.72 420.877 175.965 420.027 175.776C403.129 171.335 394.538 169.162 377.64 164.91C376.791 164.721 376.13 165.193 376.13 165.949V167.083C394.444 171.524 403.412 173.886 421.538 178.61Z" fill="#71BD67"/>
<path d="M394.916 182.106C388.686 180.5 385.57 179.744 379.245 178.138V173.792L394.916 177.76V182.106Z" fill="#FCFCFB"/>
<path d="M394.538 205.256C388.308 203.649 385.193 202.893 378.868 201.287V196.941L394.538 200.909V205.256Z" fill="#71BD67"/>
<path d="M417.384 194.862L378.773 185.602V183.429L417.29 192.689L417.384 194.862Z" fill="#888B91"/>
<path d="M416.629 200.531L378.112 191.177V189.004L416.629 198.358V200.531Z" fill="#888B91"/>
<path opacity="0.1" d="M419.933 240.855C405.772 237.17 391.612 233.673 377.357 230.083C376.508 229.894 375.847 229.138 375.847 228.382C376.035 210.808 376.035 227.437 376.13 209.768C376.13 209.012 376.791 208.634 377.64 208.729C391.801 212.414 405.961 215.91 420.027 219.595C420.877 219.784 421.538 220.54 421.538 221.296L421.255 239.91C421.16 240.666 420.594 241.138 419.933 240.855Z" fill="white"/>
<path d="M394.538 222.43C388.308 220.823 385.193 220.067 378.868 218.461V214.115L394.538 218.083V222.43Z" fill="#FCFCFB"/>
<path d="M417.384 233.957L378.773 224.697V222.524L417.29 231.878L417.384 233.957Z" fill="#888B91"/>
<path d="M392.436 164.972C386.206 163.366 383.09 162.61 376.765 161.003V156.657L392.436 160.625V164.972Z" fill="#FCFCFB"/>
<path d="M265.793 206.746C245.213 201.549 234.828 198.904 214.437 193.707C213.965 193.518 213.588 193.14 213.588 192.668C213.777 165.644 213.777 138.715 213.965 111.692C213.965 111.22 214.249 110.936 214.815 111.125C235.395 116.322 245.779 119.062 266.453 124.259C266.925 124.448 267.303 124.826 267.303 125.298C267.114 152.227 267.02 179.25 266.831 206.179C266.642 206.652 266.265 206.935 265.793 206.746Z" fill="#111723"/>
<path d="M245.685 154.967L230.108 150.904V146.558L245.685 150.621V154.967Z" fill="#4C515A"/>
<path d="M257.768 149.392L221.329 140.416L221.046 132.763L257.391 141.739L257.768 149.392Z" fill="#888B91"/>
<path d="M233.507 158.369C233.79 158.463 233.979 158.652 233.979 159.03V159.786C234.828 159.975 235.772 160.164 236.622 160.542C236.622 160.258 236.622 160.069 236.622 159.786C236.622 159.503 236.811 159.408 237.094 159.503C237.377 159.597 237.566 159.786 237.566 160.164V160.92C238.416 161.109 239.36 161.298 240.209 161.581C240.209 161.298 240.209 161.109 240.209 160.825C240.209 160.542 240.398 160.447 240.681 160.542C240.965 160.636 241.153 160.825 241.153 161.203C241.153 161.487 241.153 161.676 241.153 161.959L241.814 162.054C242.758 162.243 243.608 163.282 243.608 164.321V172.258C243.608 173.203 242.758 173.865 241.814 173.581C238.51 172.825 235.395 172.069 232.28 171.219C231.336 171.03 230.675 169.991 230.675 168.857V160.92C230.675 159.975 231.524 159.408 232.468 159.597L233.129 159.692C233.129 159.408 233.129 159.219 233.129 158.936C233.035 158.274 233.224 158.274 233.507 158.369ZM242.569 171.502C242.569 169.329 242.569 168.195 242.569 166.022C238.793 165.077 235.206 164.132 231.43 163.188L231.241 168.668C231.241 169.14 231.524 169.613 232.091 169.707C235.206 170.463 238.321 171.502 241.625 172.069C241.814 172.164 242.097 172.069 242.286 171.88C242.381 172.069 242.569 171.88 242.569 171.502ZM236.716 161.298C235.772 161.109 234.923 160.92 234.073 160.542C234.073 160.825 234.073 161.014 234.073 161.298C234.073 161.581 233.884 161.676 233.601 161.581C233.318 161.487 233.129 161.298 233.129 160.92C233.129 160.636 233.129 160.447 233.129 160.164C232.94 160.069 232.846 160.069 232.468 160.069C231.996 159.88 231.619 160.164 231.619 160.636V162.054C235.206 162.999 238.982 163.943 242.664 164.888V163.282C242.664 163.093 242.475 162.904 242.475 162.526C242.286 162.432 242.192 162.148 242.003 162.243C241.814 162.148 241.72 162.148 241.342 162.148V162.904C241.342 163.188 241.153 163.282 240.87 163.188C240.587 163.093 240.398 162.904 240.398 162.526V161.77C239.454 161.581 238.51 161.392 237.661 161.203C237.661 161.487 237.661 161.676 237.661 161.959C237.661 162.243 237.472 162.337 237.188 162.243C236.905 162.148 236.716 161.959 236.716 161.581C236.716 161.77 236.716 161.581 236.716 161.298Z" fill="#888B91"/>
<path d="M245.061 103.432L208.716 94.3617L208.338 86.7083L244.683 95.779L245.061 103.432Z" fill="white"/>
<path fill-rule="evenodd" clip-rule="evenodd" d="M315.683 143.681C315.872 144.153 317.571 149.066 317.571 149.066L322.575 149.822L318.515 153.129C318.515 153.129 321.536 159.743 317.949 162.106C314.362 164.468 310.397 163.806 310.208 165.885C309.83 170.515 311.529 176.94 311.529 176.94L295.575 178.168C295.575 178.168 297.558 172.783 297.369 168.247C297.275 165.602 297.463 162.389 294.442 159.743C291.516 157.192 286.135 152.94 291.799 143.303C297.275 134.043 312.851 135.555 315.683 143.681Z" fill="#BE8035"/>
<path d="M317.005 157.098C316.25 157.098 315.589 156.72 315.306 156.437C315.117 156.248 315.022 155.87 315.306 155.681C315.494 155.492 315.872 155.397 316.061 155.681C316.155 155.775 317.005 156.437 318.043 155.681C318.326 155.492 318.61 155.586 318.798 155.775C318.987 156.059 318.893 156.342 318.704 156.531C318.043 157.003 317.477 157.098 317.005 157.098Z" fill="black"/>
<path fill-rule="evenodd" clip-rule="evenodd" d="M314.834 150.011L314.645 150.106C314.362 150.2 314.078 150.106 314.078 149.822L313.606 148.5C313.512 148.216 313.701 147.933 313.889 147.933L314.078 147.838C314.362 147.744 314.645 147.838 314.645 148.122L315.117 149.444C315.211 149.633 315.117 149.917 314.834 150.011Z" fill="#181D30"/>
<path fill-rule="evenodd" clip-rule="evenodd" d="M306.715 134.799C309.169 134.893 310.113 137.633 309.075 137.822C308.131 138.011 305.488 139.145 302.656 139.996C297.086 141.696 299.352 144.342 300.956 145.948C302.372 147.46 300.673 151.995 300.956 152.751C302.75 157.003 300.296 155.586 300.296 155.586C300.296 155.586 299.729 151.24 298.219 151.523C296.425 151.901 294.915 152.94 295.953 154.925C296.897 156.909 298.785 157.476 298.785 157.476C298.785 157.476 297.463 162.673 296.991 162.862C296.519 163.05 292.838 159.082 291.705 157.854C290.666 156.625 288.118 152.657 288.118 149.066C288.118 146.988 288.59 144.437 290.194 142.452C291.988 140.279 294.82 138.484 297.18 137.539C299.54 136.594 305.393 134.704 306.715 134.799Z" fill="#D7D7D7"/>
<path fill-rule="evenodd" clip-rule="evenodd" d="M319.837 149.633C319.742 149.633 319.648 149.539 319.554 149.444L318.138 145.381C318.043 145.287 318.138 145.098 318.326 145.003C318.421 144.909 318.61 145.003 318.704 145.192L320.12 149.255C320.12 149.35 320.026 149.539 319.837 149.633C319.837 149.633 319.837 149.539 319.837 149.633Z" fill="#1D888C"/>
<path fill-rule="evenodd" clip-rule="evenodd" d="M300.012 153.224C299.918 153.224 299.824 153.129 299.729 153.035C299.729 152.94 299.729 152.751 299.918 152.657L318.987 146.893C319.082 146.893 319.271 146.893 319.365 147.082C319.365 147.177 319.365 147.366 319.176 147.46L300.012 153.224C300.012 153.224 300.107 153.224 300.012 153.224Z" fill="#1D888C"/>
<path fill-rule="evenodd" clip-rule="evenodd" d="M311.152 164.657C311.152 164.657 310.397 165.413 310.302 165.602C310.208 165.791 310.113 166.83 310.113 167.397C310.113 167.397 304.732 166.263 303.222 162.767C303.222 162.767 307.092 165.224 311.152 164.657Z" fill="#B57114"/>
<path fill-rule="evenodd" clip-rule="evenodd" d="M371.197 209.088C371.197 209.088 375.94 204.634 376.862 204.076C377.783 203.519 381.477 201.8 382.487 201.277C383.341 200.896 385.523 200.215 386.221 199.977C386.221 199.977 387.902 199.813 387.055 200.702C387.022 200.791 386.9 200.845 386.866 200.933C386.086 201.646 383.41 203.351 383.41 203.351C383.41 203.351 381.532 204.554 381.607 204.886C381.594 205.184 381.635 206.921 381.635 206.921C381.635 206.921 381.107 209.35 379.704 210.633C378.39 211.95 376.147 213.316 374.54 213.812C372.846 214.275 371.836 214.798 371.124 215.335C370.325 215.838 368.418 211.057 368.418 211.057L371.197 209.088Z" fill="#C47E36"/>
<path fill-rule="evenodd" clip-rule="evenodd" d="M366.14 209.879C369.062 209.381 369.936 209.211 369.936 209.211C369.936 209.211 372.541 213.753 372.155 215.022C371.803 216.202 363.812 220.422 363.812 220.422C363.812 220.422 353.287 226.503 343.37 224.417C343.37 224.417 344.579 212.837 349.486 211.381C349.486 211.381 363.219 210.377 366.14 209.879Z" fill="#5082A7"/>
<path fill-rule="evenodd" clip-rule="evenodd" d="M370.045 209.455L371.109 209.054C371.109 209.054 373.347 212.443 373.388 214.18L372.012 214.866L370.045 209.455Z" fill="#E9E9E9"/>
<path fill-rule="evenodd" clip-rule="evenodd" d="M350.293 211.387C350.394 211.122 348.097 213.681 348.064 215.085C348.152 215.119 349.25 214.63 350.293 211.387Z" fill="#4F9D42"/>
<path fill-rule="evenodd" clip-rule="evenodd" d="M382.745 203.501C382.745 203.501 383.193 204.179 383.268 204.511C383.342 204.843 383.139 205.373 383.139 205.373C383.139 205.373 383.566 205.84 383.573 206.349C383.614 206.77 383.154 207.706 383.154 207.706C383.154 207.706 383.493 208.14 383.378 208.703C383.181 209.741 381.548 210.835 381.236 211.12C380.925 211.405 375.516 213.377 375.516 213.377L376.225 206.261L382.745 203.501Z" fill="#C47E36"/>
<path fill-rule="evenodd" clip-rule="evenodd" d="M387.034 197.86C386.946 197.826 386.946 197.826 386.858 197.793C386.682 197.725 386.573 197.481 386.729 197.338L387.908 195.058C387.975 194.882 388.219 194.773 388.362 194.929C388.504 195.085 388.647 195.24 388.491 195.383L387.258 197.541C387.278 197.751 387.156 197.806 387.034 197.86Z" fill="#71BD67"/>
<path fill-rule="evenodd" clip-rule="evenodd" d="M389.143 199.479C389.055 199.446 388.878 199.378 388.824 199.256C388.682 199.1 388.783 198.835 389.027 198.727L391.203 197.537C391.359 197.395 391.623 197.496 391.732 197.74C391.874 197.896 391.772 198.161 391.528 198.27L389.353 199.459C389.265 199.425 389.265 199.425 389.143 199.479Z" fill="#71BD67"/>
<path fill-rule="evenodd" clip-rule="evenodd" d="M389.157 201.813C388.981 201.745 388.839 201.589 388.818 201.379C388.798 201.169 389.042 201.06 389.252 201.039L391.747 201.39C391.923 201.457 392.065 201.613 392.086 201.824C392.106 202.034 391.862 202.143 391.652 202.163L389.157 201.813Z" fill="#71BD67"/>
<path fill-rule="evenodd" clip-rule="evenodd" d="M314.739 403.804C289.628 399.268 273.107 386.891 278.016 376.119C282.925 365.348 307.281 360.245 332.392 364.781C357.504 369.316 373.93 381.694 369.115 392.465C364.206 403.237 339.85 408.339 314.739 403.804Z" fill="#E6E6E6"/>
<path fill-rule="evenodd" clip-rule="evenodd" d="M319.365 379.143L318.61 384.056C318.61 384.056 315.117 388.024 312.379 387.363C309.641 386.702 308.697 385.473 308.697 385.473C308.697 385.473 309.736 376.119 309.925 375.269L319.365 379.143Z" fill="#33652E"/>
<path fill-rule="evenodd" clip-rule="evenodd" d="M318.704 383.395C318.704 383.395 322.763 384.434 323.707 384.529C325.123 384.623 326.068 384.717 328.9 384.434C331.071 384.245 333.809 384.245 335.319 386.418C336.263 387.741 337.113 389.253 330.127 391.237C327.106 392.087 313.418 396.339 309.83 395.583C309.83 395.583 307.187 394.639 306.526 393.221C306.054 392.182 307.281 386.702 307.942 385.851C309.169 384.34 311.813 386.702 311.813 386.702C311.813 386.702 318.043 386.04 318.704 383.395Z" fill="#793601"/>
<path fill-rule="evenodd" clip-rule="evenodd" d="M294.915 370.544V374.985C294.915 374.985 292.366 378.954 289.911 378.765C287.362 378.481 286.418 377.631 286.418 377.631C286.418 377.631 286.041 369.316 286.135 368.466L294.915 370.544Z" fill="#356B2E"/>
<path fill-rule="evenodd" clip-rule="evenodd" d="M294.915 374.324C294.915 374.324 298.596 374.702 299.446 374.607C300.673 374.513 301.523 374.418 303.977 373.851C305.865 373.379 308.225 373.095 309.925 374.702C310.963 375.741 311.907 376.969 305.96 379.615C303.411 380.749 292.082 386.324 288.778 386.135C288.778 386.135 286.324 385.662 285.569 384.528C285.002 383.678 285.38 378.67 285.852 377.82C286.701 376.308 289.345 378.009 289.345 378.009C289.345 378.009 294.726 376.78 294.915 374.324Z" fill="#793601"/>
<path fill-rule="evenodd" clip-rule="evenodd" d="M331.449 321.411C331.449 321.411 330.976 327.458 320.309 383.3C320.309 383.3 308.697 384.434 308.886 382.639C311.057 357.694 314.173 319.427 314.173 319.427L331.449 321.411Z" fill="#0C101D"/>
<path fill-rule="evenodd" clip-rule="evenodd" d="M305.11 314.891C305.11 314.891 296.425 370.639 295.67 374.418C295.67 374.418 285.569 375.552 285.569 373.662C284.247 331.994 287.74 316.687 287.74 316.687L305.11 314.891Z" fill="#0C101D"/>
<path fill-rule="evenodd" clip-rule="evenodd" d="M305.016 315.08L306.62 264.057L285.569 263.112L287.74 316.687L305.016 315.08Z" fill="#0C101D"/>
<path fill-rule="evenodd" clip-rule="evenodd" d="M328.239 258.86L302.75 262.545L314.173 320.939L328.239 258.86Z" fill="#0C101D"/>
<path fill-rule="evenodd" clip-rule="evenodd" d="M285.569 263.112L305.865 266.23H308.037L328.805 263.018L327.295 248.183L287.173 249.884L285.569 263.112Z" fill="#0C101D"/>
<path fill-rule="evenodd" clip-rule="evenodd" d="M295.575 174.861C295.575 174.861 285.852 178.452 279.338 183.838C277.072 185.727 283.114 215.963 284.247 222.011C285.38 228.058 286.701 253.38 286.701 253.38C286.701 253.38 295.103 254.987 302.278 255.176C308.886 255.459 327.956 253.097 327.956 253.097C327.956 253.097 326.256 183.176 324.179 181.381C321.536 179.113 320.214 179.775 313.04 176.657C305.865 173.728 295.575 174.861 295.575 174.861Z" fill="#5082A7"/>
<path fill-rule="evenodd" clip-rule="evenodd" d="M295.575 174.956C295.575 174.956 305.582 176.657 313.606 177.129C313.606 177.129 292.649 179.964 295.575 174.956Z" fill="#497596"/>
<path fill-rule="evenodd" clip-rule="evenodd" d="M281.604 182.042C281.604 182.042 277.828 184.783 276.978 186.2C276.317 187.239 272.919 215.302 275.468 229.664C275.468 229.664 281.32 236.089 288.023 236.845L281.604 182.042Z" fill="#5082A7"/>
<path fill-rule="evenodd" clip-rule="evenodd" d="M318.893 181.476C318.61 181.476 321.253 174.767 332.959 191.586C342.682 205.475 349.668 210.672 352.028 211.806C352.028 211.806 357.126 220.215 353.728 222.483C350.612 224.467 347.403 225.412 344.193 223.806C340.606 221.916 327.106 213.034 322.386 205.57C317.666 197.916 317.477 183.365 318.893 181.476Z" fill="#5082A7"/>
<path fill-rule="evenodd" clip-rule="evenodd" d="M331.448 321.411C331.448 321.411 333.148 282.01 328.239 258.766L305.016 273.884L314.078 320.088L331.448 321.411Z" fill="#0C101D"/>
<path fill-rule="evenodd" clip-rule="evenodd" d="M285.663 236.373C285.663 236.373 281.415 210.105 281.132 205.381C281.132 205.381 280.471 230.609 281.792 234.672L285.663 236.373Z" fill="#497596"/>
<path fill-rule="evenodd" clip-rule="evenodd" d="M295.575 174.861L296.519 169.948C296.519 169.948 300.39 170.231 307.942 171.649C307.942 171.649 313.229 172.216 313.512 175.145C313.606 176.09 313.701 177.035 313.701 177.035C313.701 177.035 297.935 177.129 295.575 174.861Z" fill="#E9E9E9"/>
<path fill-rule="evenodd" clip-rule="evenodd" d="M328.9 212.562C328.9 212.562 338.434 220.026 344.193 222.388C347.875 223.9 350.707 224.278 352.217 223.239C352.217 223.239 348.913 225.129 345.987 224.562C345.987 224.562 342.682 224.656 328.9 212.562Z" fill="#497596"/>
<path fill-rule="evenodd" clip-rule="evenodd" d="M349.479 209.822C349.479 209.822 346.836 210.672 346.836 212.278C346.836 212.278 348.724 211.05 349.479 209.822Z" fill="#5082A7"/>
<path d="M294.365 195.27L290.262 197.58C290.179 197.627 290.112 197.688 290.067 197.759C290.021 197.829 289.998 197.907 290 197.985C290.002 198.063 290.028 198.14 290.077 198.209C290.126 198.279 290.195 198.338 290.28 198.383L304.67 205.903C304.778 205.959 304.904 205.993 305.035 205.999C305.166 206.005 305.297 205.984 305.414 205.938C305.53 205.892 305.629 205.823 305.697 205.739C305.766 205.654 305.804 205.556 305.805 205.456L306 193.028C306.001 192.95 305.978 192.873 305.934 192.802C305.889 192.732 305.823 192.67 305.741 192.622L304.347 191.804C304.248 191.746 304.13 191.711 304.005 191.701C303.881 191.692 303.756 191.709 303.644 191.751C303.532 191.794 303.438 191.859 303.372 191.94C303.307 192.02 303.273 192.113 303.274 192.208L303.33 202.762L295.412 198.462C295.331 198.418 295.264 198.36 295.217 198.293C295.17 198.226 295.144 198.152 295.14 198.076C295.137 198 295.157 197.925 295.198 197.856C295.239 197.786 295.301 197.726 295.378 197.677L296.559 196.945C296.63 196.902 296.687 196.847 296.728 196.786C296.769 196.724 296.793 196.657 296.797 196.588C296.802 196.519 296.787 196.45 296.755 196.385C296.722 196.321 296.672 196.263 296.608 196.214L295.442 195.331C295.302 195.224 295.116 195.159 294.918 195.148C294.721 195.137 294.524 195.18 294.365 195.27Z" fill="#FBFBFB"/>
<path d="M301.882 190.977L295.924 194.38C295.865 194.413 295.817 194.455 295.781 194.503C295.746 194.551 295.724 194.604 295.716 194.659C295.709 194.714 295.717 194.77 295.74 194.822C295.762 194.875 295.799 194.923 295.848 194.964L297.288 196.186C297.366 196.252 297.474 196.292 297.59 196.298C297.706 196.304 297.821 196.275 297.91 196.219L299.274 195.335C299.347 195.287 299.436 195.257 299.531 195.248C299.626 195.238 299.722 195.25 299.809 195.282C299.895 195.313 299.967 195.363 300.017 195.426C300.066 195.488 300.09 195.56 300.087 195.632L299.975 198.075C299.972 198.145 299.943 198.212 299.891 198.269C299.84 198.326 299.768 198.371 299.684 198.398C299.6 198.425 299.508 198.434 299.418 198.423C299.328 198.412 299.244 198.382 299.176 198.336L298.518 197.894C298.468 197.861 298.41 197.835 298.348 197.819C298.285 197.803 298.218 197.797 298.152 197.8C298.086 197.804 298.022 197.818 297.963 197.841C297.904 197.863 297.851 197.895 297.809 197.933L297.485 198.225C297.441 198.265 297.408 198.311 297.389 198.36C297.369 198.41 297.363 198.462 297.372 198.513C297.38 198.565 297.402 198.614 297.436 198.659C297.471 198.704 297.517 198.743 297.572 198.773L301.699 201.06C301.779 201.105 301.874 201.133 301.973 201.14C302.072 201.146 302.172 201.132 302.261 201.098C302.35 201.064 302.425 201.012 302.477 200.947C302.529 200.882 302.556 200.808 302.556 200.732V193.21C302.556 193.137 302.529 193.066 302.477 193.005C302.426 192.943 302.353 192.894 302.267 192.863C302.18 192.832 302.084 192.82 301.989 192.829C301.894 192.838 301.804 192.867 301.73 192.913L298.372 195C298.325 195.03 298.27 195.052 298.211 195.064C298.152 195.077 298.09 195.08 298.029 195.074C297.968 195.068 297.91 195.052 297.857 195.028C297.804 195.004 297.759 194.972 297.723 194.934C297.644 194.849 297.612 194.745 297.633 194.642C297.654 194.539 297.727 194.447 297.837 194.384L302.561 191.694C302.655 191.64 302.721 191.563 302.747 191.476C302.774 191.388 302.759 191.297 302.707 191.217L302.638 191.114C302.606 191.063 302.558 191.019 302.5 190.984C302.442 190.949 302.375 190.924 302.302 190.911C302.23 190.898 302.155 190.897 302.082 190.908C302.01 190.92 301.941 190.943 301.882 190.977Z" fill="#FBFBFB"/>
<path d="M303.776 189.934L305.305 189.065C305.37 189.029 305.446 189.007 305.526 189.001C305.607 188.996 305.687 189.008 305.759 189.035C305.831 189.062 305.892 189.104 305.935 189.156C305.977 189.208 306 189.268 306 189.329V191.113C306 191.175 305.977 191.235 305.934 191.288C305.891 191.34 305.83 191.382 305.757 191.41C305.684 191.437 305.602 191.448 305.522 191.442C305.441 191.436 305.364 191.412 305.299 191.375L303.77 190.478C303.715 190.446 303.671 190.404 303.641 190.357C303.611 190.31 303.595 190.258 303.596 190.205C303.596 190.152 303.613 190.1 303.644 190.053C303.675 190.006 303.72 189.966 303.776 189.934V189.934Z" fill="#FBFBFB"/>
<path fill-rule="evenodd" clip-rule="evenodd" d="M398.938 406.264C396.389 400.689 402.714 393.13 414.797 391.618C426.786 390.107 439.72 395.209 442.269 400.784C444.817 406.358 437.265 412.028 425.276 413.634C413.287 415.146 401.486 411.839 398.938 406.264Z" fill="#E6E6E6"/>
<path fill-rule="evenodd" clip-rule="evenodd" d="M398.371 400.973C398.277 396.248 404.791 392.374 412.909 392.28C421.028 392.185 427.542 395.965 427.636 400.595C427.731 405.319 421.217 409.193 413.098 409.288C404.979 409.382 398.371 405.602 398.371 400.973Z" fill="#FFE466"/>
<path fill-rule="evenodd" clip-rule="evenodd" d="M427.447 383.776C427.542 383.87 398.371 384.059 398.371 384.059L398.56 400.784L427.636 400.5L427.447 383.776Z" fill="#FFE466"/>
<path fill-rule="evenodd" clip-rule="evenodd" d="M398.371 383.965C398.277 379.241 404.791 375.367 412.909 375.272C421.028 375.178 427.542 378.957 427.636 383.587C427.731 388.311 421.217 392.185 413.098 392.28C404.979 392.469 398.371 388.595 398.371 383.965Z" fill="#BFBDBA"/>
<path fill-rule="evenodd" clip-rule="evenodd" d="M412.248 376.311C412.154 376.311 412.06 376.311 411.965 376.311C404.696 376.406 398.466 379.807 398.466 383.87C398.466 385.76 399.882 387.555 402.242 388.878C404.791 390.39 408.378 391.146 412.06 391.146C419.329 391.051 425.559 387.65 425.559 383.587C425.559 381.697 424.143 379.902 421.783 378.579C419.234 377.067 415.836 376.311 412.248 376.311ZM411.871 393.225C407.906 393.225 404.224 392.28 401.298 390.768C398.182 389.067 396.483 386.61 396.389 383.965C396.294 378.579 403.186 374.422 411.871 374.327C416.025 374.327 419.801 375.178 422.727 376.784C425.843 378.485 427.542 380.941 427.636 383.587C427.731 388.973 420.839 393.13 412.154 393.225C412.06 393.225 411.965 393.225 411.871 393.225Z" fill="#E9E8E7"/>
<path fill-rule="evenodd" clip-rule="evenodd" d="M412.532 401.728C419.046 401.634 424.615 398.799 426.598 394.925C424.521 391.146 418.951 388.406 412.343 388.5C405.829 388.595 400.259 391.429 398.277 395.303C400.354 399.177 405.923 401.823 412.532 401.728Z" fill="#FFDB33"/>
<path fill-rule="evenodd" clip-rule="evenodd" d="M413.004 392.28C419.329 392.185 424.71 389.823 426.598 386.422C424.521 383.209 419.14 380.847 412.815 380.941C406.49 381.036 401.109 383.398 399.221 386.8C401.298 390.107 406.773 392.374 413.004 392.28Z" fill="#8C694D"/>
<path fill-rule="evenodd" clip-rule="evenodd" d="M406.395 386.611C406.112 386.611 405.829 386.422 405.829 386.044C405.829 385.382 407.528 317.635 374.959 294.958C374.77 294.769 374.676 294.391 374.77 294.202C374.959 294.013 375.337 293.919 375.526 294.013C408.567 317.068 406.867 385.382 406.773 386.044" fill="#71BD67"/>
<path fill-rule="evenodd" clip-rule="evenodd" d="M406.207 357.697C406.962 355.619 408.095 354.201 409.228 352.879C409.7 352.312 410.172 351.745 410.549 351.178C411.116 350.516 411.871 349.099 411.21 347.587C411.021 347.02 410.077 346.642 409.228 346.359C408.378 346.17 407.623 345.792 407.245 345.225C406.018 343.241 406.773 341.351 407.434 339.839C407.717 338.989 408.095 338.233 408.472 337.477C409.322 335.682 410.172 333.981 410.077 332.091C409.983 329.351 408.944 328.973 407.34 328.312C406.395 328.028 405.451 327.651 404.507 326.706C402.997 325.194 403.469 322.265 403.752 320.186L403.847 319.525C403.941 318.958 404.035 318.485 404.035 318.013C404.413 315.556 404.602 314.044 403.847 311.493C403.186 309.32 401.77 309.131 399.882 309.037C398.938 308.942 397.899 308.848 396.955 308.47C394.217 307.43 393.934 303.178 393.651 299.493C393.557 298.076 393.462 296.753 393.179 295.808C392.424 293.068 389.497 290.423 385.438 290.99C384.588 291.084 384.022 291.273 383.55 291.462C382.512 291.745 381.662 292.029 380.057 291.367C378.735 290.801 377.508 290.139 376.375 289.478C374.015 288.06 371.844 286.832 369.106 287.682C367.69 288.155 364.292 289.667 364.575 293.068C364.764 295.336 366.463 296.942 368.162 298.454C368.634 298.832 369.012 299.21 369.39 299.588C371.372 301.572 371.183 304.218 371.089 306.863C370.994 307.997 370.994 309.226 371.183 310.265C371.655 313.666 374.11 314.517 377.131 315.556C377.697 315.745 378.263 315.84 378.83 316.123C382.606 317.54 382.134 319.903 381.567 322.265C381.473 322.737 381.379 323.21 381.284 323.777C380.718 327.273 383.833 329.257 387.043 330.769C390.536 332.469 392.235 333.981 391.857 335.493C391.669 336.721 390.819 336.816 390.158 336.816C389.781 336.91 389.403 336.91 389.214 337.099C388.648 337.666 388.459 338.139 388.459 338.895C388.553 340.69 390.536 343.052 392.235 344.469C392.801 344.942 393.557 345.32 394.312 345.698C395.634 346.359 397.144 347.115 397.899 348.438C398.466 349.666 397.805 350.422 397.333 350.894C397.05 351.272 396.672 351.556 396.483 352.123C395.822 354.012 397.05 354.674 399.221 355.619C399.882 355.902 400.637 356.28 401.392 356.753L402.147 357.225C403.469 358.075 404.696 358.926 405.357 359.493C405.357 359.493 405.735 358.831 406.207 357.697ZM405.168 361.099C404.979 361.099 404.791 361.005 404.696 360.91C404.696 360.816 404.602 360.816 404.602 360.721C404.035 360.154 402.431 359.115 401.392 358.359L400.637 357.886C400.07 357.508 399.315 357.225 398.654 356.847C396.672 355.902 394.406 354.863 395.35 352.028C395.539 351.367 396.011 350.8 396.389 350.422C396.955 349.855 397.05 349.666 396.861 349.099C396.294 347.965 395.162 347.398 393.84 346.737C392.99 346.359 392.235 345.887 391.574 345.414C390.913 344.847 387.515 341.918 387.42 339.083C387.42 338.139 387.704 337.194 388.459 336.532C388.931 336.06 389.497 335.965 389.969 335.965C390.536 335.871 390.725 335.776 390.725 335.398C390.819 334.737 389.781 333.32 386.382 331.808C384.494 330.863 379.396 328.406 380.246 323.682C380.34 323.115 380.435 322.643 380.529 322.17C381.095 319.808 381.473 318.296 378.452 317.162C377.886 316.973 377.319 316.785 376.753 316.596C373.638 315.556 370.711 314.517 370.05 310.454C369.862 309.32 369.956 308.092 369.956 306.863C370.05 304.312 370.145 301.95 368.54 300.344C368.162 299.966 367.785 299.588 367.407 299.21C365.708 297.604 363.725 295.808 363.442 293.163C363.159 290.328 365.141 287.871 368.729 286.738C372.033 285.793 374.393 287.21 376.942 288.627C378.075 289.289 379.207 289.95 380.529 290.423C381.851 290.99 382.417 290.706 383.456 290.423C384.022 290.234 384.683 290.045 385.627 289.95C390.347 289.383 393.651 292.312 394.501 295.619C394.784 296.564 394.878 297.982 394.973 299.493C395.162 302.706 395.539 306.674 397.616 307.525C398.466 307.808 399.41 307.997 400.259 308.092C402.242 308.281 404.224 308.47 405.074 311.304C406.018 314.044 405.64 315.84 405.263 318.296C405.168 318.769 405.074 319.241 405.074 319.808L404.979 320.47C404.696 322.265 404.319 325.005 405.451 326.139C406.207 326.895 407.056 327.178 407.906 327.462C409.511 328.028 411.21 328.69 411.304 332.091C411.399 334.17 410.455 336.06 409.605 337.855C409.228 338.611 408.85 339.367 408.661 340.123C408 341.824 407.623 343.241 408.472 344.658C408.661 344.942 409.228 345.131 409.794 345.32C410.738 345.603 411.965 345.981 412.343 347.115C412.909 348.627 412.626 350.233 411.588 351.745C411.116 352.312 410.644 352.973 410.266 353.446C409.133 354.768 408.095 356.091 407.34 357.981C405.829 361.005 405.451 361.099 405.168 361.099Z" fill="#71BD67"/>
<path fill-rule="evenodd" clip-rule="evenodd" d="M419.895 386.611C419.612 386.611 419.329 386.422 419.329 386.138C419.234 385.571 415.081 334.265 442.929 325.194C443.213 325.099 443.496 325.288 443.59 325.477C443.685 325.761 443.496 326.044 443.307 326.139C416.308 335.02 420.462 385.571 420.462 386.044C420.462 386.422 420.273 386.611 419.895 386.611C419.895 386.611 419.99 386.611 419.895 386.611Z" fill="#71BD67"/>
<path fill-rule="evenodd" clip-rule="evenodd" d="M437.36 343.619C437.737 343.619 438.209 343.619 438.587 343.713C439.153 343.713 439.531 343.808 440.003 343.808C442.269 343.713 443.968 343.146 444.817 342.107C445.384 341.446 445.478 340.501 445.195 339.461C445.101 339.178 445.006 338.706 444.723 338.139C444.062 336.438 443.118 334.265 444.629 332.847C445.289 332.186 446.611 332.091 447.933 331.902C448.782 331.808 449.632 331.713 450.104 331.525C450.859 331.241 453.219 329.918 452.842 327.556C452.086 323.777 450.198 322.454 447.083 321.32C445.856 321.036 444.723 320.753 443.685 320.753C441.136 320.658 440.003 320.942 437.926 322.359C437.548 322.548 437.171 322.926 436.888 323.115C435.472 324.155 434.15 325.194 432.073 324.532C429.147 323.588 428.014 323.588 426.409 326.611C425.182 328.973 424.898 331.43 424.71 334.359C424.71 334.548 424.71 334.926 424.71 335.115C424.615 336.249 424.615 337.761 423.86 338.611C423.01 339.556 421.878 339.556 420.933 339.556C419.989 339.556 419.234 339.556 418.573 340.312C416.591 342.485 416.969 346.265 417.346 349.288C417.441 349.666 417.535 350.138 417.535 350.516C417.913 352.595 418.479 355.052 416.591 356.469C416.025 356.847 415.647 357.036 415.175 357.32C414.231 357.886 413.664 358.075 413.664 359.493C413.759 362.138 415.458 364.406 417.063 366.579C418.007 367.902 419.045 369.319 419.801 370.737C420.65 369.036 422.633 368.186 424.426 367.43C426.692 366.485 428.769 365.634 428.958 363.367C429.052 362.516 428.486 361.855 428.014 361.099C427.258 360.06 426.314 358.642 427.353 356.847C428.391 355.052 430.374 354.579 432.262 354.201C433.489 354.012 434.528 353.729 435.377 353.257C437.832 351.65 437.36 350.516 436.321 348.532C436.132 347.965 435.755 347.493 435.566 346.926C435.094 345.698 435.094 344.847 435.472 344.375C435.66 343.713 436.416 343.619 437.36 343.619ZM419.801 373.382C419.612 373.382 419.329 373.193 419.234 372.91C418.857 370.926 417.535 369.13 416.119 367.241C414.42 364.878 412.626 362.422 412.532 359.493C412.437 357.414 413.476 356.942 414.514 356.28C414.892 356.091 415.364 355.902 415.741 355.524C417.063 354.579 416.685 352.69 416.308 350.705C416.213 350.233 416.119 349.855 416.119 349.383C415.647 346.17 415.364 342.202 417.535 339.556C418.479 338.422 419.706 338.422 420.65 338.422C421.594 338.422 422.255 338.422 422.727 337.855C423.294 337.288 423.294 335.965 423.294 335.021C423.294 334.737 423.294 334.454 423.388 334.17C423.577 331.052 423.954 328.595 425.276 326.044C427.258 322.265 429.052 322.359 432.262 323.399C433.867 323.966 434.811 323.21 436.132 322.076C436.51 321.792 436.888 321.509 437.265 321.225C439.625 319.619 440.947 319.43 443.685 319.525C444.912 319.619 446.045 319.808 447.366 320.092C447.366 320.092 447.366 320.092 447.461 320.092C450.198 321.036 453.031 322.454 453.88 327.178C454.258 329.257 453.031 331.241 450.576 332.375C449.915 332.658 448.971 332.753 448.027 332.847C446.989 332.942 445.761 333.036 445.289 333.414C444.345 334.359 445.101 336.154 445.573 337.477C445.761 338.044 445.95 338.422 446.139 338.8C446.517 340.217 446.328 341.351 445.573 342.391C444.251 344.186 441.513 344.469 440.003 344.564C439.436 344.564 438.964 344.564 438.398 344.469C437.454 344.375 436.321 344.28 436.038 344.658C435.944 344.847 435.849 345.225 436.227 346.265C436.416 346.831 436.699 347.304 436.888 347.776C437.832 349.855 438.87 351.745 435.566 353.823C434.622 354.485 433.3 354.768 432.167 354.957C430.374 355.335 428.769 355.619 427.919 357.036C427.258 358.264 427.731 359.02 428.58 360.154C429.147 361.005 429.807 361.855 429.807 363.083C429.619 365.918 426.975 367.052 424.615 367.997C422.161 368.941 420.084 369.886 420.178 372.437C420.273 373.099 420.178 373.288 419.801 373.382Z" fill="#71BD67"/>
<path fill-rule="evenodd" clip-rule="evenodd" d="M398.371 390.201C398.371 390.39 398.277 390.579 398.277 390.768C398.371 395.398 404.885 398.988 413.004 398.988C421.122 398.988 427.636 395.114 427.542 390.484L427.447 383.87C427.259 388.311 420.839 391.996 412.909 392.091C405.074 392.185 398.654 388.784 398.277 384.343L398.371 390.201Z" fill="#E9E8E7"/>
<path fill-rule="evenodd" clip-rule="evenodd" d="M425.748 388.122C423.105 390.957 418.101 392.941 412.343 392.941C406.49 393.036 401.487 391.24 398.843 388.5V390.107V390.201V390.39C398.843 390.485 398.843 390.579 398.843 390.673C398.843 392.469 400.165 394.264 402.619 395.587C405.168 397.004 408.567 397.76 412.154 397.76C412.249 397.76 412.343 397.76 412.437 397.76C416.119 397.666 419.612 396.91 422.161 395.398C424.615 393.981 425.843 392.185 425.843 390.39L425.748 388.122ZM411.965 399.839C408 399.839 404.319 398.988 401.392 397.382C398.277 395.681 396.578 393.319 396.483 390.768C396.483 390.579 396.483 390.39 396.483 390.296V390.201L396.389 384.343C396.389 383.87 396.766 383.398 397.333 383.303C397.899 383.303 398.277 383.681 398.371 384.154C398.749 387.933 404.696 390.957 411.682 390.957C411.776 390.957 411.871 390.957 411.871 390.957C419.046 390.862 425.087 387.65 425.276 383.776C425.276 383.303 425.654 382.926 426.126 382.831C426.126 382.831 426.126 382.831 426.22 382.831C426.22 382.831 426.315 382.831 426.409 382.831C426.975 382.831 427.353 383.303 427.353 383.776L427.447 390.296C427.447 392.847 425.748 395.303 422.727 397.099C419.801 398.799 416.025 399.744 411.965 399.744C412.154 399.839 412.06 399.839 411.965 399.839Z" fill="#E9E8E7"/>
<path d="M3.95553 406.547C3.20031 406.264 2.63389 405.603 2.9171 404.847L16.7943 338.611C16.9831 337.95 17.7384 337.383 18.4936 337.572C19.3432 337.666 19.9096 338.611 19.7208 339.367L5.84359 405.603C5.56038 406.264 4.89956 406.831 3.95553 406.547Z" fill="#D2C1AD"/>
<path d="M51.3458 412.122C50.4962 412.122 49.8353 411.555 49.8353 410.705L45.4928 343.147C45.4928 342.485 46.0592 341.729 46.9088 341.729C47.7585 341.635 48.5137 342.296 48.5137 343.147L52.8562 410.705C52.8562 411.366 52.2898 412.122 51.3458 412.122Z" fill="#D2C1AD"/>
<path d="M69.0935 404.091H75.7017V323.399H69.0935V404.091Z" fill="#C0A88C"/>
<path d="M140.462 433.854H147.07V345.036H140.462V433.854ZM209.093 405.13H215.701V324.722H209.093V405.13Z" fill="#BAA082"/>
<path d="M225.047 309.509C225.047 332.469 187.853 351.083 141.878 351.083C95.904 351.083 58.7092 332.469 58.7092 309.509V303.367H225.142V309.509H225.047Z" fill="#BAA082"/>
<path d="M65.0342 334.076C57.5763 336.722 42.8495 335.682 33.9756 330.107C24.9129 324.344 30.2939 298.643 30.2939 298.643C30.2939 298.643 42.283 295.431 46.6256 295.62C49.9297 295.62 53.045 295.147 68.9047 303.745C84.8588 312.249 86.086 316.312 85.2364 320.942C84.2924 325.289 65.0342 334.076 65.0342 334.076Z" fill="#EF7654"/>
<path fill-rule="evenodd" clip-rule="evenodd" d="M1.3122 259.998C17.3607 256.691 27.6506 260.943 34.8253 270.864C40.395 278.328 40.6782 304.785 44.6432 325.005C48.6081 345.225 77.873 336.155 77.873 336.155C77.873 336.155 68.9991 341.918 49.9297 345.131C28.0282 348.721 13.1126 339.745 4.80511 327.367C-3.31355 314.989 1.3122 259.998 1.3122 259.998Z" fill="#EF7857"/>
<path fill-rule="evenodd" clip-rule="evenodd" d="M11.3 263.417C8.65672 290.933 8.65672 311.43 11.3 324.91C15.2649 345.131 77.873 336.154 77.873 336.154C77.873 336.154 68.9991 341.918 49.9297 345.131C28.0282 348.721 13.1126 339.745 4.80511 327.367C-3.31355 314.989 1.3122 259.998 1.3122 259.998C4.85184 258.991 8.18111 260.131 11.3 263.417Z" fill="#EC5B33"/>
<path fill-rule="evenodd" clip-rule="evenodd" d="M15.4726 319.43C15.4726 319.43 13.3014 323.021 13.5846 327.178C13.679 329.162 15.095 333.32 18.8711 334.643C21.3256 335.493 57.2932 333.225 56.9155 333.036L51.9122 369.414L63.2405 368.847L75.5129 320.281L69.3767 312.722L42.5663 314.517L15.4726 319.43Z" fill="#FFA300"/>
<path fill-rule="evenodd" clip-rule="evenodd" d="M43.4159 314.517L71.076 309.698L75.1353 316.974L95.0543 348.816L86.3693 356.091L59.9364 319.525L43.9823 317.446L43.4159 314.517Z" fill="#6DB8BB"/>
<path fill-rule="evenodd" clip-rule="evenodd" d="M93.1663 348.816L97.6976 359.587L94.8655 361.855L89.1069 353.635L93.1663 348.816Z" fill="#BD8032"/>
<path fill-rule="evenodd" clip-rule="evenodd" d="M71.548 335.588L64.1846 324.911L68.8103 346.548L71.548 335.588Z" fill="#369EA1"/>
<path fill-rule="evenodd" clip-rule="evenodd" d="M90.2398 355.241L94.6767 352.501L93.4495 349.383L88.8237 353.162L90.2398 355.241Z" fill="#A76628"/>
<path fill-rule="evenodd" clip-rule="evenodd" d="M51.9122 367.052L63.9958 366.863L63.335 369.225L51.4402 369.698L51.9122 367.052Z" fill="#369EA1"/>
<path fill-rule="evenodd" clip-rule="evenodd" d="M54.2723 368.658L51.629 379.052L56.2548 378.768L59.5589 368.375L54.2723 368.658Z" fill="#BD8032"/>
<path fill-rule="evenodd" clip-rule="evenodd" d="M53.5171 371.776L58.5204 371.587L59.5589 368.375L54.2723 368.658L53.5171 371.776Z" fill="#A76628"/>
<path fill-rule="evenodd" clip-rule="evenodd" d="M51.0626 376.217C51.0626 375.461 51.5346 374.894 52.573 375.556C53.6115 376.217 56.1604 376.784 57.2932 375.839C58.426 374.8 59.6533 375.556 59.6533 375.556C59.6533 375.556 69.9432 380.375 70.2264 380.469C70.604 380.564 72.1145 380.942 72.6809 381.697C73.2473 382.453 73.2473 383.398 73.2473 383.398L50.3074 383.965L51.0626 376.217Z" fill="#D2C1AD"/>
<path fill-rule="evenodd" clip-rule="evenodd" d="M84.5757 354.579L94.2048 346.926L95.3376 348.816L86.4637 356.564L84.5757 354.579Z" fill="#369EA1"/>
<path fill-rule="evenodd" clip-rule="evenodd" d="M90.6174 358.548C90.6174 357.792 91.0894 357.225 92.1278 357.887C93.1662 358.548 95.8095 359.115 96.848 358.076C97.9808 357.036 99.208 357.792 99.208 357.792C99.208 357.792 109.498 362.422 109.876 362.611C110.253 362.705 111.764 363.083 112.33 363.839C112.896 364.595 112.896 365.54 112.896 365.54L89.9565 366.485L90.6174 358.548Z" fill="#D2C1AD"/>
<path fill-rule="evenodd" clip-rule="evenodd" d="M40.5838 255.462C41.0558 255.273 46.6256 254.234 46.6256 254.234C46.6256 254.234 46.72 270.58 56.6323 278.045C66.5446 285.509 76.8345 285.698 79.1002 285.604C81.7435 285.509 83.0651 284.942 84.8588 286.927C86.558 288.911 89.6733 293.068 89.6733 293.068C89.6733 293.068 87.6909 294.202 86.1804 293.541C84.5756 292.879 82.7819 289.478 80.3274 290.045C76.8345 290.801 69.9431 291.462 61.0692 290.328C52.8562 289.289 38.4125 282.108 34.6364 258.203L34.542 256.785L40.5838 255.462Z" fill="#ECC493"/>
<path fill-rule="evenodd" clip-rule="evenodd" d="M52.3416 208.313C52.6248 208.786 55.6457 214.738 55.6457 214.738L60.4602 214.644L58.289 218.423C58.289 218.423 61.1211 225.888 57.2505 229.29C53.4744 232.691 47.999 233.352 46.583 235.431C43.9397 239.494 44.8837 246.77 44.8837 246.77L37.9923 243.368C37.9923 243.368 41.3908 234.486 41.0132 233.636C39.9748 231.368 35.821 233.919 31.8561 231.274C28.08 228.723 21.6606 223.337 26.2863 210.676C31.0065 198.203 46.7718 200.282 52.3416 208.313Z" fill="#E8B87D"/>
<path fill-rule="evenodd" clip-rule="evenodd" d="M60.4602 214.549L55.6456 214.644C55.6456 214.644 52.6247 208.691 52.3415 208.219C47.4326 201.227 34.877 198.676 28.6464 206.518C35.2546 201.227 45.3557 204.345 49.7926 210.675C50.0758 211.148 53.6632 216.628 53.6632 216.628L57.9113 216.25" fill="#ECC493"/>
<path fill-rule="evenodd" clip-rule="evenodd" d="M41.202 213.888L54.2296 209.447C54.2296 209.447 52.7192 201.605 46.0165 200.565C39.5027 199.526 29.5904 200.943 25.9087 204.912C22.227 208.88 18.2621 215.872 21.283 224.093C23.2654 229.573 27.7024 232.502 32.6113 232.691L35.821 232.975L41.202 213.888Z" fill="#FFD100"/>
<path fill-rule="evenodd" clip-rule="evenodd" d="M40.0692 220.88C39.6916 221.069 35.5378 217.479 33.7442 219.179C31.9505 220.88 33.3666 223.809 35.2546 224.565C37.1427 225.321 39.5972 224.565 39.5972 224.565L40.0692 220.88Z" fill="#E8B87D"/>
<path fill-rule="evenodd" clip-rule="evenodd" d="M25.8143 206.613C24.8703 206.991 18.5453 208.88 16.846 203.873C15.0523 198.865 18.5453 194.707 22.7934 194.424C26.9471 194.235 29.496 199.904 29.024 202.833L25.8143 206.613Z" fill="#FFD200"/>
<path fill-rule="evenodd" clip-rule="evenodd" d="M51.0199 217.195L51.4919 217.101C51.6807 217.006 51.8696 216.817 51.7751 216.628L51.3031 214.833C51.2087 214.644 51.0199 214.455 50.8311 214.55L50.3591 214.739C50.1703 214.833 49.9815 215.022 50.0759 215.211L50.5479 216.912C50.6423 217.101 50.8311 217.29 51.0199 217.195Z" fill="#181D30"/>
<path fill-rule="evenodd" clip-rule="evenodd" d="M55.3624 225.038C54.4184 225.038 53.5688 224.471 53.2856 224.093C53.1912 223.998 53.1912 223.809 53.1912 223.715C53.1912 223.526 53.38 223.431 53.4744 223.431L56.1177 222.392C56.4009 222.297 56.5897 222.392 56.6841 222.675C56.7785 222.959 56.6841 223.148 56.4009 223.242L54.5128 223.904C54.9848 224.093 55.6456 224.282 56.4009 223.715C56.5897 223.62 56.8729 223.62 57.0617 223.904C57.1561 224.093 57.1561 224.376 56.8729 224.565C56.4009 224.943 55.8344 225.038 55.3624 225.038Z" fill="#C22000"/>
<path fill-rule="evenodd" clip-rule="evenodd" d="M19.1117 198.014C23.171 197.731 25.8143 203.306 25.4367 206.235C30.0624 204.061 37.3314 203.306 42.4292 204.156C46.7717 204.817 48.943 208.408 49.887 210.77L54.324 209.258C54.324 209.258 52.8135 201.416 46.1109 200.376C41.0132 199.621 33.7441 200.282 29.1184 202.455C29.496 199.526 26.8527 193.951 22.7934 194.235C20.3389 194.424 17.9788 196.03 17.0348 198.487C17.6956 198.203 18.4508 198.014 19.1117 198.014Z" fill="#FFDE6C"/>
<path fill-rule="evenodd" clip-rule="evenodd" d="M36.6706 239.022L46.2997 241.478C46.2997 241.478 49.9814 241.951 46.3941 247.526C46.3941 247.526 37.6146 246.581 35.349 244.218C33.0833 241.762 33.8385 238.36 36.6706 239.022Z" fill="#6DB8BB"/>
<path fill-rule="evenodd" clip-rule="evenodd" d="M36.5763 243.935C36.6707 243.274 31.5729 241.478 29.5905 248.187C29.5905 248.187 35.9155 249.982 36.5763 243.935Z" fill="#369EA1"/>
<path fill-rule="evenodd" clip-rule="evenodd" d="M36.4818 243.746C36.0098 243.274 30.6288 247.242 33.6497 252.439C33.6497 252.439 42.2404 248.943 36.4818 243.746Z" fill="#6DB8BB"/>
<path fill-rule="evenodd" clip-rule="evenodd" d="M48.4193 264.155C48.4193 264.155 52.0066 275.494 60.0309 279.651L55.6883 290.517C55.6883 290.517 39.1678 281.068 36.9021 268.596C36.9021 268.313 36.8077 268.124 36.8077 267.84L48.4193 264.155Z" fill="#111220"/>
<path fill-rule="evenodd" clip-rule="evenodd" d="M37.1853 242.707L46.248 246.581L55.8771 312.722L14.5286 320.092C14.5286 320.092 16.8886 304.123 17.6439 301.572C23.1192 283.053 20.6648 260.848 31.2379 248.187L35.6748 244.03L37.1853 242.707Z" fill="#181D30"/>
<path fill-rule="evenodd" clip-rule="evenodd" d="M33.7869 267.462C33.7869 267.462 36.619 282.108 42.4719 288.061C46.7201 292.407 52.9507 292.879 52.9507 292.879L52.5731 289.478L33.7869 267.462Z" fill="#00050D"/>
<path fill-rule="evenodd" clip-rule="evenodd" d="M39.5454 264.533C39.923 264.25 45.1152 261.793 45.1152 261.793C45.1152 261.793 49.5521 277.572 61.0693 282.108C72.5865 286.643 82.5932 284.092 84.67 283.431C87.2189 282.675 88.3518 281.73 90.523 283.242C92.6943 284.659 96.7536 287.872 96.7536 287.872C96.7536 287.872 95.1488 289.478 93.4495 289.289C91.7503 289.1 89.107 286.36 86.8413 287.494C83.6316 289.1 77.2122 291.557 68.3383 292.879C60.1253 294.013 44.36 290.895 34.3532 268.88L33.8812 267.557L39.5454 264.533Z" fill="#E8B87D"/>
<path fill-rule="evenodd" clip-rule="evenodd" d="M33.4092 266.234C33.4092 266.234 37.1853 286.832 56.0659 291.179L61.0693 282.013C61.0693 282.013 50.6849 277.1 44.4543 258.77L33.4092 266.234Z" fill="#181D30"/>
<path d="M225.614 305.257C225.614 328.218 188.419 346.926 142.445 346.926C96.4704 346.926 59.2756 328.218 59.2756 305.257C59.2756 282.297 96.4704 263.588 142.445 263.588C188.419 263.588 225.614 282.202 225.614 305.257ZM252.047 448.972C251.48 448.972 250.819 448.594 250.725 448.027L236.376 403.24C236.092 402.485 236.47 401.634 237.32 401.351C238.075 401.067 238.736 401.445 239.019 402.296L253.368 447.083C253.651 447.838 253.274 448.689 252.424 448.972C252.33 448.972 252.141 448.972 252.047 448.972ZM163.78 446.327C163.685 446.327 163.402 446.327 163.213 446.232C162.458 445.949 161.986 445.193 162.269 444.342L180.395 398.138C180.678 397.477 181.622 397.099 182.283 397.382C183.038 397.666 183.51 398.422 183.227 399.272L165.101 445.476C164.818 445.854 164.346 446.327 163.78 446.327Z" fill="#D2C1AD"/>
<path fill-rule="evenodd" clip-rule="evenodd" d="M183.982 401.067C183.982 401.067 165.29 391.618 164.346 387.083C163.591 382.453 164.913 378.485 180.489 370.453C196.16 362.516 199.181 362.989 202.391 363.178C206.639 363.178 218.25 366.768 218.25 366.768C218.25 366.768 223.159 392.658 214.285 398.138C205.6 403.429 191.251 403.996 183.982 401.067Z" fill="#EF7857"/>
<path fill-rule="evenodd" clip-rule="evenodd" d="M254.501 324.816C254.501 324.816 258.372 379.902 250.253 391.996C242.04 404.091 227.313 412.595 205.978 408.248C187.38 404.374 178.79 398.327 178.79 398.327C178.79 398.327 207.3 408.437 211.359 388.406C215.513 368.375 215.985 341.918 221.554 334.643C228.729 324.816 238.83 320.942 254.501 324.816Z" fill="#EC5B33"/>
<path d="M206.639 474.295C205.695 474.295 205.223 473.539 205.223 472.877L210.226 405.508C210.226 404.752 210.981 404.091 211.831 404.185C212.586 404.185 213.153 404.941 213.153 405.603L208.149 472.972C208.055 473.728 207.394 474.295 206.639 474.295Z" fill="#D2C1AD"/>
<path d="M240.907 323.871C240.907 323.871 249.214 322.926 252.707 323.493C255.351 323.871 255.445 323.777 255.351 331.336" fill="#EC5B33"/>
<path d="M168.217 319.336C164.913 319.241 163.025 317.919 161.986 316.785C160.665 315.367 160.098 313.478 160.287 312.438C160.287 310.36 161.609 304.218 161.703 303.934C161.703 303.651 161.986 303.367 162.364 303.556C162.647 303.651 162.93 303.934 162.741 304.218C162.741 304.218 161.42 310.454 161.42 312.438C161.42 313.383 161.797 314.8 162.836 316.029C164.063 317.352 165.857 318.107 168.311 318.107C170.577 318.107 172.465 317.352 173.787 316.029C175.014 314.8 175.203 313.194 175.203 312.438C175.203 310.454 173.881 304.218 173.881 304.218C173.787 303.934 173.975 303.651 174.259 303.556C174.542 303.462 174.825 303.651 174.919 303.934C174.919 304.218 176.241 310.265 176.335 312.438C176.335 313.667 175.958 315.367 174.636 316.785C173.409 317.919 171.521 319.241 168.217 319.336ZM162.93 296.753C159.626 296.659 157.738 295.336 156.7 294.202C155.378 292.785 154.812 290.895 155 289.856C155 287.777 156.322 281.635 156.416 281.352C156.416 281.069 156.794 280.785 157.077 280.974C157.36 281.069 157.644 281.352 157.455 281.635C157.455 281.635 156.133 287.872 156.133 289.856C156.133 290.801 156.511 292.218 157.549 293.446C158.776 294.769 160.57 295.525 163.025 295.525C165.29 295.525 167.178 294.769 168.5 293.446C169.727 292.218 169.916 290.612 169.916 289.856C169.916 287.872 168.594 281.635 168.594 281.635C168.5 281.352 168.689 281.069 168.972 280.974C169.255 280.974 169.538 281.069 169.633 281.352C169.633 281.635 170.954 287.683 171.049 289.856C171.049 291.084 170.671 292.785 169.35 294.202C168.028 295.431 166.234 296.753 162.93 296.753ZM126.585 280.974C127.246 280.974 140.085 282.297 143.106 278.612C143.389 278.234 143.2 278.045 143.2 277.95C141.973 276.533 132.721 275.683 126.491 279.273C125.547 279.84 124.791 280.218 124.131 280.502L126.585 280.974ZM132.06 282.297C130.172 282.297 128.379 282.202 126.491 282.013L122.526 281.257C122.242 281.257 122.148 280.974 122.148 280.691C122.148 280.407 122.242 280.313 122.526 280.124C122.526 280.124 123.942 279.557 126.207 278.234C132.438 274.643 142.35 275.021 144.238 277.195C144.805 277.856 144.805 278.517 144.144 279.179C141.973 281.824 136.309 282.297 132.06 282.297Z" fill="white"/>
<path d="M134.043 307.43C131.494 307.43 128.567 307.052 125.263 306.013C124.98 305.919 124.886 305.73 124.886 305.446L124.791 283.242L120.826 280.407C120.543 280.313 120.543 279.84 120.732 279.651C120.826 279.368 121.298 279.368 121.487 279.557L125.641 282.486C125.735 282.58 125.924 282.769 125.924 282.864L126.018 304.879C135.553 307.903 142.067 304.785 143.389 303.934L143.011 277.383C143.011 277.1 143.294 276.817 143.577 276.817C143.955 276.817 144.144 277.1 144.144 277.383L144.427 304.312C144.427 304.407 144.333 304.69 144.144 304.69C143.955 305.068 140.368 307.43 134.043 307.43Z" fill="white"/>
<path d="M143.672 298.076C143.577 298.076 143.577 298.076 143.389 298.076C143.105 297.982 143.011 297.698 143.105 297.415C147.259 289.005 148.014 285.415 146.41 283.714C145.466 282.769 144.05 283.809 144.05 283.809C143.766 283.903 143.483 283.903 143.294 283.714C143.2 283.431 143.2 283.147 143.294 283.053C144.049 282.391 145.938 281.73 147.259 283.053C149.525 285.415 147.92 289.95 144.05 297.887C144.05 297.982 143.955 298.076 143.672 298.076Z" fill="white"/>
<path d="M125.924 422.988L125.358 426.673C125.358 426.673 122.714 429.697 120.732 429.224C118.749 428.658 117.994 427.807 117.994 427.807C117.994 427.807 118.749 420.626 118.938 419.965L125.924 422.988Z" fill="#6DB8BB"/>
<path d="M126.585 425.917C126.585 425.917 129.983 426.862 130.833 426.862C132.06 426.957 132.816 426.957 135.176 426.862C137.064 426.768 139.329 426.768 140.651 428.563C141.406 429.791 142.067 430.925 136.12 432.72C133.476 433.476 121.959 437.067 118.938 436.405C118.938 436.405 116.673 435.65 116.201 434.421C115.823 433.665 116.861 428.846 117.428 428.091C118.466 426.768 120.732 428.846 120.732 428.846C120.732 428.846 126.113 428.374 126.585 425.917Z" fill="#111723"/>
<path d="M100.637 413.917V417.886C100.637 417.886 98.3715 421.476 96.1058 421.193C93.8402 420.91 92.8961 420.154 92.8961 420.154C92.8961 420.154 92.5185 412.689 92.6129 411.933L100.637 413.917Z" fill="#6DB8BB"/>
<path d="M99.5857 417.602C99.5857 417.602 102.984 417.886 103.834 417.886C105.061 417.791 105.816 417.791 108.082 417.225C109.781 416.847 112.047 416.469 113.652 417.98C114.596 418.925 115.54 420.059 109.97 422.61C107.61 423.65 96.9425 428.846 93.9216 428.752C93.9216 428.752 91.6559 428.374 90.9007 427.335C90.3342 426.579 90.8063 421.854 91.1839 421.099C91.9391 419.681 94.488 421.193 94.488 421.193C94.488 421.193 99.4913 419.87 99.5857 417.602Z" fill="#111723"/>
<path d="M37.5629 446.516C37.4685 446.516 37.2797 446.516 37.1853 446.421C36.4301 446.138 35.9581 445.382 36.2413 444.531L50.5905 399.744C50.8737 398.989 51.629 398.516 52.2898 398.8C53.045 399.083 53.517 399.839 53.2338 400.689L38.8846 445.476C38.6014 446.138 38.0349 446.516 37.5629 446.516Z" fill="#D2C1AD"/>
<path fill-rule="evenodd" clip-rule="evenodd" d="M137.819 371.587C137.819 371.587 134.42 404.658 130.55 426.201C130.55 426.201 117.806 427.524 118.089 425.445C120.449 398.044 123.281 369.698 123.281 369.698L137.819 371.587Z" fill="#1F2333"/>
<path d="M112.708 360.438C112.708 360.438 103.834 413.351 103.079 417.414C103.079 417.414 93.8271 417.319 91.939 416.658C90.051 415.902 97.792 363.367 97.792 363.367L112.708 360.438Z" fill="#111723"/>
<path fill-rule="evenodd" clip-rule="evenodd" d="M103.551 398.422C103.551 398.422 122.242 388.973 123.186 384.437C123.942 379.808 122.62 375.839 107.044 367.808C91.3726 359.871 88.3517 360.343 85.142 360.532C80.8939 360.532 69.2823 364.123 69.2823 364.123C69.2823 364.123 64.3734 390.012 73.2472 395.492C81.9323 400.784 96.376 401.351 103.551 398.422Z" fill="#EF7857"/>
<path d="M97.4145 368.375C97.4145 368.375 112.141 363.367 112.519 360.154C113.557 352.595 109.781 349.761 106.194 348.721C102.607 347.493 86.2749 351.745 86.2749 351.745L97.4145 368.375Z" fill="#111723"/>
<path d="M73.4361 291.462C69.5656 290.139 68.4327 289.572 68.4327 289.572C68.4327 289.572 68.5272 286.927 68.5272 285.604C69.188 277.856 67.8663 274.36 67.8663 274.36L77.401 278.045L86.2749 279.273C86.2749 279.273 84.8589 282.108 85.6141 289.1C85.7085 289.856 86.3693 292.312 86.3693 292.312C86.3693 292.312 82.1212 293.635 75.2298 292.029L73.4361 291.462Z" fill="#70481F"/>
<path d="M95.8096 261.226L96.5649 262.927L97.5089 265.573C97.5089 265.573 100.058 273.793 95.5264 277.1C90.9951 280.407 85.7085 278.14 84.0093 280.313C80.7052 284.47 83.3484 290.139 83.3484 290.139H75.2298C75.2298 290.139 75.7962 279.084 75.513 278.14C74.569 275.588 72.1145 278.045 67.9608 274.832C63.9958 271.62 57.482 265.289 63.807 251.967C70.3208 239.022 89.8623 243.557 92.7887 252.061C92.8831 252.628 95.8096 261.226 95.8096 261.226Z" fill="#70481F"/>
<path d="M95.8096 261.226L96.5648 262.927L97.5088 265.573C97.5088 265.573 94.5669 261.982 94.2837 261.037C92.5977 254.753 89.1069 247.526 84.5756 248.073C67.7719 247.526 69.2823 258.486 65.3174 252.061C71.8312 239.116 89.8622 243.557 92.7887 252.061C92.8831 252.628 95.8096 261.226 95.8096 261.226Z" fill="#885725"/>
<path d="M91.1839 261.037H91.0895C90.8063 261.037 90.7119 260.943 90.5231 260.659L90.2399 259.053C90.2399 258.77 90.3343 258.486 90.5231 258.392H90.6175C90.9007 258.392 90.9951 258.486 91.1839 258.77L91.4671 260.376C91.6559 260.659 91.4671 260.943 91.1839 261.037Z" fill="#111723"/>
<path d="M76.3625 263.683C76.3625 263.683 79.5722 272.092 83.254 271.431C86.9357 270.769 98.9249 266.14 98.9249 266.14C98.9249 266.14 100.247 270.391 100.813 274.265C101.096 276.533 101.757 279.179 96.848 280.124C92.5055 280.88 86.2749 281.068 86.2749 281.068C86.2749 281.068 77.3066 280.502 76.1737 276.439C75.0409 272.376 75.2297 269.541 74.7577 266.895L76.3625 263.683Z" fill="#111723"/>
<path d="M94.2991 273.549C93.0719 273.549 92.2223 273.171 91.7503 272.887C91.6559 272.793 91.4671 272.604 91.6559 272.509C91.6559 272.415 91.7503 272.226 92.0335 272.131L95.3376 270.903C95.6208 270.808 95.9984 270.903 96.0928 271.186C96.1872 271.47 96.0928 271.753 95.8096 271.848L93.5439 272.604C94.1103 272.698 94.96 272.698 95.904 272.32C96.1872 272.226 96.5648 272.226 96.848 272.415C97.1312 272.509 96.9424 272.982 96.7536 273.076C95.9984 273.265 95.1488 273.549 94.2991 273.549Z" fill="#70331F"/>
<path d="M76.457 267.746C76.457 267.746 73.1529 257.541 73.1529 255.652C73.1529 252.628 73.9081 249.132 77.7787 248.093C81.6492 247.053 87.3134 246.864 87.3134 246.864C87.3134 246.864 87.9742 244.597 85.6141 242.234C83.9149 240.534 79.0059 241.289 74.1913 243.274C69.3768 245.258 62.7686 248.093 60.4085 255.368C59.6533 257.919 57.7652 266.612 67.3943 275.683L76.457 267.746Z" fill="#111723"/>
<path d="M77.4928 264.119C77.4928 264.119 73.1502 260.623 72.0174 262.419C70.7902 264.025 71.451 266.009 73.0558 267.049C74.6607 267.993 79.2864 265.726 79.2864 265.726L77.4928 264.119ZM99.2055 261.096C99.0645 261.284 100.637 264.155 97.1639 265.573C93.6906 266.99 96.1846 265.915 96.1846 265.915L93.9189 260.529C95.1461 260.812 99.4887 260.623 99.2055 261.096Z" fill="#70481F"/>
<path fill-rule="evenodd" clip-rule="evenodd" d="M99.8006 261.096C99.5949 261.37 97.7912 261.381 96.5689 261.906C96.1082 262.104 95.3376 261.793 95.3376 261.793L94.514 260.529C95.7413 260.812 100.084 260.623 99.8006 261.096Z" fill="#885725"/>
<path fill-rule="evenodd" clip-rule="evenodd" d="M53.8947 383.871C55.1219 389.54 83.0652 395.965 97.2256 390.674C107.516 386.8 116.295 380.564 125.547 376.595C128.945 375.178 137.158 376.028 137.158 376.028C137.158 376.028 138.48 367.524 138.291 364.501C138.197 361.572 135.648 356.091 131.022 355.713C121.204 354.769 94.96 363.461 94.96 363.461L51.157 369.509C51.157 369.509 52.573 377.918 53.8947 383.871Z" fill="#1F2333"/>
<path d="M52.101 375.272C52.101 375.272 41.1503 349.761 42.8495 321.603C44.7376 291.462 58.9924 286.265 58.9924 286.265C67.9607 288.533 96.4704 291.462 96.4704 291.462C97.1313 354.013 100.813 365.823 100.813 365.823C100.813 365.823 88.0686 379.43 73.7193 378.863C54.9331 378.39 52.101 375.272 52.101 375.272Z" fill="white"/>
<path d="M108.082 307.241C108.082 307.241 107.044 291.84 92.6943 291.368C80.1387 288.722 64.3734 284.753 59.9365 286.832C54.4611 289.383 48.7969 294.297 46.8145 304.218L106.194 306.108L108.082 307.241Z" fill="white"/>
<path d="M118.278 323.115C116.673 321.509 105.156 302.139 105.156 302.139L93.7327 303.179C93.7327 303.179 91.6559 322.17 91.6559 322.737C93.2607 330.296 115.917 341.635 115.917 341.635C115.917 341.635 117.9 342.296 120.449 341.351C120.354 341.446 131.211 335.966 118.278 323.115Z" fill="white"/>
<path d="M125.83 442.547C125.169 442.547 124.603 442.169 124.508 441.602L106.383 395.398C106.1 394.737 106.477 393.792 107.327 393.508C108.082 393.225 108.932 393.603 109.215 394.264L127.34 440.468C127.623 441.13 127.246 442.075 126.396 442.358C126.207 442.547 125.924 442.547 125.83 442.547Z" fill="#D2C1AD"/>
<path fill-rule="evenodd" clip-rule="evenodd" d="M33.0316 320.848C33.0316 320.848 29.1611 375.934 37.2797 388.028C45.4928 400.122 60.2197 408.626 81.5547 404.28C100.152 400.406 108.743 394.359 108.743 394.359C108.743 394.359 80.2331 404.469 76.1738 384.438C72.1144 364.406 71.3592 337.855 65.8838 330.485C58.7092 320.848 48.7969 316.974 33.0316 320.848Z" fill="#EC5B33"/>
<path d="M82.2156 470.232C81.4603 470.232 80.8939 469.665 80.7995 468.909L75.7961 401.54C75.7961 400.784 76.3626 400.122 77.1178 400.122C77.873 400.028 78.5338 400.689 78.7226 401.445L83.726 468.815C83.6316 469.57 83.1596 470.232 82.2156 470.232C82.31 470.232 82.31 470.232 82.2156 470.232C82.2156 470.232 82.31 470.232 82.2156 470.232ZM125.83 442.547C125.169 442.547 124.602 442.169 124.508 441.602L106.383 395.398C106.1 394.737 106.477 393.792 107.327 393.508C108.082 393.225 108.932 393.603 109.215 394.264L127.34 440.468C127.623 441.13 127.246 442.075 126.396 442.358C126.207 442.547 125.924 442.547 125.83 442.547Z" fill="#D2C1AD"/>
<path d="M67.7719 284.942C67.7719 284.942 70.3207 289.761 84.9532 288.816C84.9532 288.816 72.964 284.659 67.7719 284.942Z" fill="#70481F"/>
<path d="M106.227 93.7345L106.693 91.9033L177.405 109.958L176.938 111.79L106.227 93.7345Z" fill="#E6E6E6"/>
<path d="M106.631 123.099L107.098 121.268L177.809 139.323L177.342 141.154L106.631 123.099Z" fill="#E6E6E6"/>
<path d="M106.274 152.847L106.74 151.016L177.452 169.071L176.985 170.902L106.274 152.847Z" fill="#E6E6E6"/>
<g filter="url(#filter0_d_174:93)">
<g filter="url(#filter1_d_174:93)">
<path d="M317.595 43.7615L292.342 23.7141C291.017 22.6629 289.045 23.142 287.937 24.7839L285.928 27.7566C284.82 29.3984 284.995 31.5815 286.319 32.6327L304.328 46.9276L281.197 54.8479C279.501 55.4285 278.37 57.4035 278.671 59.2594L279.216 62.6189C279.517 64.4748 281.136 65.5085 282.832 64.9278L315.279 53.8195C315.864 53.6195 316.407 53.241 316.844 52.7287C317.281 52.2163 317.595 51.5914 317.748 50.9272L318.608 47.1947C318.919 45.837 318.526 44.4987 317.595 43.7615Z" fill="#113378"/>
</g>
<g filter="url(#filter2_d_174:93)">
<path d="M215.576 32.0692L237.829 54.3817C238.996 55.5517 241.022 55.2632 242.355 53.7378L244.77 50.9759C246.103 49.4505 246.237 47.2655 245.071 46.0956L229.201 30.1853L253.294 24.5166C255.061 24.1011 256.463 22.2469 256.426 20.3749L256.359 16.9862C256.323 15.1142 254.861 13.9337 253.094 14.3492L219.296 22.299C218.688 22.4422 218.095 22.7665 217.588 23.2338C217.082 23.7011 216.682 24.2921 216.436 24.9373L215.055 28.5629C214.554 29.8818 214.756 31.2486 215.576 32.0692Z" fill="#113378"/>
</g>
<g filter="url(#filter3_d_174:93)">
<rect width="78.3742" height="11.5713" rx="5.78565" transform="matrix(0.575503 -0.817799 0.903742 0.428077 240.674 64.0942)" fill="#113378"/>
</g>
</g>
<g filter="url(#filter4_d_174:93)">
<path d="M365 66C365 74.2843 358.06 81 349.5 81C340.94 81 334 74.2843 334 66C334 57.7157 340.94 51 349.5 51C358.06 51 365 57.7157 365 66Z" fill="#113378"/>
</g>
<g filter="url(#filter5_d_174:93)">
<path d="M395 81.5C395 88.4036 389.851 94 383.5 94C377.149 94 372 88.4036 372 81.5C372 74.5964 377.149 69 383.5 69C389.851 69 395 74.5964 395 81.5Z" fill="#113378"/>
</g>
<g filter="url(#filter6_d_174:93)">
<path d="M420 91C420 97.0751 415.523 102 410 102C404.477 102 400 97.0751 400 91C400 84.9249 404.477 80 410 80C415.523 80 420 84.9249 420 91Z" fill="#113378"/>
</g>
<defs>
<filter id="filter0_d_174:93" x="210.783" y="1.86646" width="111.93" height="73.3147" filterUnits="userSpaceOnUse" color-interpolation-filters="sRGB">
<feFlood flood-opacity="0" result="BackgroundImageFix"/>
<feColorMatrix in="SourceAlpha" type="matrix" values="0 0 0 0 0 0 0 0 0 0 0 0 0 0 0 0 0 0 127 0" result="hardAlpha"/>
<feOffset dy="4"/>
<feGaussianBlur stdDeviation="2"/>
<feComposite in2="hardAlpha" operator="out"/>
<feColorMatrix type="matrix" values="0 0 0 0 0 0 0 0 0 0 0 0 0 0 0 0 0 0 0.47 0"/>
<feBlend mode="normal" in2="BackgroundImageFix" result="effect1_dropShadow_174:93"/>
<feBlend mode="normal" in="SourceGraphic" in2="effect1_dropShadow_174:93" result="shape"/>
</filter>
<filter id="filter1_d_174:93" x="274.623" y="23.1567" width="48.0901" height="49.9326" filterUnits="userSpaceOnUse" color-interpolation-filters="sRGB">
<feFlood flood-opacity="0" result="BackgroundImageFix"/>
<feColorMatrix in="SourceAlpha" type="matrix" values="0 0 0 0 0 0 0 0 0 0 0 0 0 0 0 0 0 0 127 0" result="hardAlpha"/>
<feOffset dy="4"/>
<feGaussianBlur stdDeviation="2"/>
<feComposite in2="hardAlpha" operator="out"/>
<feColorMatrix type="matrix" values="0 0 0 0 0 0 0 0 0 0 0 0 0 0 0 0 0 0 0.53 0"/>
<feBlend mode="normal" in2="BackgroundImageFix" result="effect1_dropShadow_174:93"/>
<feBlend mode="normal" in="SourceGraphic" in2="effect1_dropShadow_174:93" result="shape"/>
</filter>
<filter id="filter2_d_174:93" x="210.783" y="14.2659" width="49.6437" height="48.8347" filterUnits="userSpaceOnUse" color-interpolation-filters="sRGB">
<feFlood flood-opacity="0" result="BackgroundImageFix"/>
<feColorMatrix in="SourceAlpha" type="matrix" values="0 0 0 0 0 0 0 0 0 0 0 0 0 0 0 0 0 0 127 0" result="hardAlpha"/>
<feOffset dy="4"/>
<feGaussianBlur stdDeviation="2"/>
<feComposite in2="hardAlpha" operator="out"/>
<feColorMatrix type="matrix" values="0 0 0 0 0 0 0 0 0 0 0 0 0 0 0 0 0 0 0.53 0"/>
<feBlend mode="normal" in2="BackgroundImageFix" result="effect1_dropShadow_174:93"/>
<feBlend mode="normal" in="SourceGraphic" in2="effect1_dropShadow_174:93" result="shape"/>
</filter>
<filter id="filter3_d_174:93" x="239.033" y="1.86646" width="58.8446" height="73.3147" filterUnits="userSpaceOnUse" color-interpolation-filters="sRGB">
<feFlood flood-opacity="0" result="BackgroundImageFix"/>
<feColorMatrix in="SourceAlpha" type="matrix" values="0 0 0 0 0 0 0 0 0 0 0 0 0 0 0 0 0 0 127 0" result="hardAlpha"/>
<feOffset dy="4"/>
<feGaussianBlur stdDeviation="2"/>
<feComposite in2="hardAlpha" operator="out"/>
<feColorMatrix type="matrix" values="0 0 0 0 0 0 0 0 0 0 0 0 0 0 0 0 0 0 0.64 0"/>
<feBlend mode="normal" in2="BackgroundImageFix" result="effect1_dropShadow_174:93"/>
<feBlend mode="normal" in="SourceGraphic" in2="effect1_dropShadow_174:93" result="shape"/>
</filter>
<filter id="filter4_d_174:93" x="330" y="51" width="39" height="38" filterUnits="userSpaceOnUse" color-interpolation-filters="sRGB">
<feFlood flood-opacity="0" result="BackgroundImageFix"/>
<feColorMatrix in="SourceAlpha" type="matrix" values="0 0 0 0 0 0 0 0 0 0 0 0 0 0 0 0 0 0 127 0" result="hardAlpha"/>
<feOffset dy="4"/>
<feGaussianBlur stdDeviation="2"/>
<feComposite in2="hardAlpha" operator="out"/>
<feColorMatrix type="matrix" values="0 0 0 0 0 0 0 0 0 0 0 0 0 0 0 0 0 0 0.62 0"/>
<feBlend mode="normal" in2="BackgroundImageFix" result="effect1_dropShadow_174:93"/>
<feBlend mode="normal" in="SourceGraphic" in2="effect1_dropShadow_174:93" result="shape"/>
</filter>
<filter id="filter5_d_174:93" x="368" y="69" width="31" height="33" filterUnits="userSpaceOnUse" color-interpolation-filters="sRGB">
<feFlood flood-opacity="0" result="BackgroundImageFix"/>
<feColorMatrix in="SourceAlpha" type="matrix" values="0 0 0 0 0 0 0 0 0 0 0 0 0 0 0 0 0 0 127 0" result="hardAlpha"/>
<feOffset dy="4"/>
<feGaussianBlur stdDeviation="2"/>
<feComposite in2="hardAlpha" operator="out"/>
<feColorMatrix type="matrix" values="0 0 0 0 0 0 0 0 0 0 0 0 0 0 0 0 0 0 0.62 0"/>
<feBlend mode="normal" in2="BackgroundImageFix" result="effect1_dropShadow_174:93"/>
<feBlend mode="normal" in="SourceGraphic" in2="effect1_dropShadow_174:93" result="shape"/>
</filter>
<filter id="filter6_d_174:93" x="396" y="80" width="28" height="30" filterUnits="userSpaceOnUse" color-interpolation-filters="sRGB">
<feFlood flood-opacity="0" result="BackgroundImageFix"/>
<feColorMatrix in="SourceAlpha" type="matrix" values="0 0 0 0 0 0 0 0 0 0 0 0 0 0 0 0 0 0 127 0" result="hardAlpha"/>
<feOffset dy="4"/>
<feGaussianBlur stdDeviation="2"/>
<feComposite in2="hardAlpha" operator="out"/>
<feColorMatrix type="matrix" values="0 0 0 0 0 0 0 0 0 0 0 0 0 0 0 0 0 0 0.62 0"/>
<feBlend mode="normal" in2="BackgroundImageFix" result="effect1_dropShadow_174:93"/>
<feBlend mode="normal" in="SourceGraphic" in2="effect1_dropShadow_174:93" result="shape"/>
</filter>
</defs>
</svg>
